# Blender v3.1.2 OBJ File: ''
# www.blender.org
o Cube
v 0.900000 0.900000 -1.000000
v 0.900000 1.000000 -0.900000
v 1.000000 0.900000 -0.900000
v 0.900000 0.970711 -0.970711
v 0.957735 0.957735 -0.957735
v 0.970711 0.970711 -0.900000
v 0.970711 0.900000 -0.970711
v 0.900000 -1.000000 -0.900000
v 0.900000 -0.900000 -1.000000
v 1.000000 -0.900000 -0.900000
v 0.900000 -0.970711 -0.970711
v 0.957735 -0.957735 -0.957735
v 0.970711 -0.900000 -0.970711
v 0.970711 -0.970711 -0.900000
v 1.000000 0.900000 0.900000
v 0.900000 1.000000 0.900000
v 0.900000 0.900000 1.000000
v 0.970711 0.970711 0.900000
v 0.957735 0.957735 0.957735
v 0.900000 0.970711 0.970711
v 0.970711 0.900000 0.970711
v 1.000000 -0.900000 0.900000
v 0.900000 -0.900000 1.000000
v 0.900000 -1.000000 0.900000
v 0.970711 -0.900000 0.970711
v 0.957735 -0.957735 0.957735
v 0.900000 -0.970711 0.970711
v 0.970711 -0.970711 0.900000
v -0.900000 0.900000 -1.000000
v -1.000000 0.900000 -0.900000
v -0.900000 1.000000 -0.900000
v -0.970711 0.900000 -0.970711
v -0.957735 0.957735 -0.957735
v -0.970711 0.970711 -0.900000
v -0.900000 0.970711 -0.970711
v -1.000000 -0.900000 -0.900000
v -0.900000 -0.900000 -1.000000
v -0.900000 -1.000000 -0.900000
v -0.970711 -0.900000 -0.970711
v -0.957735 -0.957735 -0.957735
v -0.900000 -0.970711 -0.970711
v -0.970711 -0.970711 -0.900000
v -1.000000 0.900000 0.900000
v -0.900000 0.900000 1.000000
v -0.900000 1.000000 0.900000
v -0.970711 0.900000 0.970711
v -0.957735 0.957735 0.957735
v -0.900000 0.970711 0.970711
v -0.970711 0.970711 0.900000
v -0.900000 -1.000000 0.900000
v -0.900000 -0.900000 1.000000
v -1.000000 -0.900000 0.900000
v -0.900000 -0.970711 0.970711
v -0.957735 -0.957735 0.957735
v -0.970711 -0.900000 0.970711
v -0.970711 -0.970711 0.900000
vn 0.1794 -0.9673 -0.1794
vn -0.1794 -0.9673 0.1794
vn -0.1794 -0.9673 -0.1794
vn -0.9673 0.1794 0.1794
vn -0.9673 -0.1794 -0.1794
vn -0.9673 -0.1794 0.1794
vn 0.1794 0.1794 0.9673
vn -0.1794 -0.1794 0.9673
vn 0.1794 -0.1794 0.9673
vn -0.1794 0.9673 -0.1794
vn 0.1794 0.9673 0.1794
vn 0.1794 0.9673 -0.1794
vn 0.9673 0.1794 -0.1794
vn 0.9673 -0.1794 0.1794
vn 0.9673 -0.1794 -0.1794
vn 0.1794 0.1794 -0.9673
vn 0.5774 0.5774 -0.5774
vn 0.6993 0.1479 -0.6993
vn 0.1479 0.6993 -0.6993
vn 0.6993 0.6993 -0.1479
vn 0.5774 -0.5774 -0.5774
vn 0.6993 -0.6993 -0.1479
vn 0.1794 -0.1794 -0.9673
vn 0.1479 -0.6993 -0.6993
vn 0.6993 -0.1479 -0.6993
vn 0.9673 0.1794 0.1794
vn 0.5774 0.5774 0.5774
vn 0.6993 0.1479 0.6993
vn 0.6993 0.6993 0.1479
vn 0.1479 0.6993 0.6993
vn 0.5774 -0.5774 0.5774
vn 0.6993 -0.6993 0.1479
vn 0.6993 -0.1479 0.6993
vn 0.1794 -0.9673 0.1794
vn 0.1479 -0.6993 0.6993
vn -0.1794 0.1794 -0.9673
vn -0.5774 0.5774 -0.5774
vn -0.1479 0.6993 -0.6993
vn -0.9673 0.1794 -0.1794
vn -0.6993 0.1479 -0.6993
vn -0.6993 0.6993 -0.1479
vn -0.5774 -0.5774 -0.5774
vn -0.6993 -0.6993 -0.1479
vn -0.1794 -0.1794 -0.9673
vn -0.6993 -0.1479 -0.6993
vn -0.1479 -0.6993 -0.6993
vn -0.5774 0.5774 0.5774
vn -0.6993 0.6993 0.1479
vn -0.1794 0.1794 0.9673
vn -0.6993 0.1479 0.6993
vn -0.1794 0.9673 0.1794
vn -0.1479 0.6993 0.6993
vn -0.5774 -0.5774 0.5774
vn -0.6993 -0.6993 0.1479
vn -0.1479 -0.6993 0.6993
vn -0.6993 -0.1479 0.6993
s 1
f 8//1 50//2 38//3
f 43//4 36//5 52//6
f 17//7 51//8 23//9
f 31//10 16//11 2//12
f 3//13 22//14 10//15
f 1//16 5//17 7//18
f 2//12 5//17 4//19
f 3//13 5//17 6//20
f 8//1 12//21 14//22
f 9//23 12//21 11//24
f 10//15 12//21 13//25
f 15//26 19//27 21//28
f 16//11 19//27 18//29
f 17//7 19//27 20//30
f 22//14 26//31 28//32
f 23//9 26//31 25//33
f 24//34 26//31 27//35
f 29//36 33//37 35//38
f 30//39 33//37 32//40
f 31//10 33//37 34//41
f 36//5 40//42 42//43
f 37//44 40//42 39//45
f 38//3 40//42 41//46
f 43//4 47//47 49//48
f 44//49 47//47 46//50
f 45//51 47//47 48//52
f 50//2 54//53 56//54
f 51//8 54//53 53//55
f 52//6 54//53 55//56
f 50//2 42//43 38//3
f 56//54 36//5 42//43
f 38//3 11//24 8//1
f 41//46 9//23 11//24
f 10//15 7//18 3//13
f 13//25 1//16 7//18
f 44//49 55//56 51//8
f 46//50 52//6 55//56
f 23//9 21//28 17//7
f 25//33 15//26 21//28
f 37//44 32//40 29//36
f 39//45 30//39 32//40
f 45//51 20//30 16//11
f 48//52 17//7 20//30
f 16//11 6//20 2//12
f 18//29 3//13 6//20
f 24//34 53//55 50//2
f 27//35 51//8 53//55
f 31//10 49//48 45//51
f 34//41 43//4 49//48
f 2//12 35//38 31//10
f 4//19 29//36 35//38
f 8//1 28//32 24//34
f 14//22 22//14 28//32
f 29//36 9//23 37//44
f 8//1 24//34 50//2
f 43//4 30//39 36//5
f 17//7 44//49 51//8
f 31//10 45//51 16//11
f 3//13 15//26 22//14
f 1//16 4//19 5//17
f 2//12 6//20 5//17
f 3//13 7//18 5//17
f 8//1 11//24 12//21
f 9//23 13//25 12//21
f 10//15 14//22 12//21
f 15//26 18//29 19//27
f 16//11 20//30 19//27
f 17//7 21//28 19//27
f 22//14 25//33 26//31
f 23//9 27//35 26//31
f 24//34 28//32 26//31
f 29//36 32//40 33//37
f 30//39 34//41 33//37
f 31//10 35//38 33//37
f 36//5 39//45 40//42
f 37//44 41//46 40//42
f 38//3 42//43 40//42
f 43//4 46//50 47//47
f 44//49 48//52 47//47
f 45//51 49//48 47//47
f 50//2 53//55 54//53
f 51//8 55//56 54//53
f 52//6 56//54 54//53
f 50//2 56//54 42//43
f 56//54 52//6 36//5
f 38//3 41//46 11//24
f 41//46 37//44 9//23
f 10//15 13//25 7//18
f 13//25 9//23 1//16
f 44//49 46//50 55//56
f 46//50 43//4 52//6
f 23//9 25//33 21//28
f 25//33 22//14 15//26
f 37//44 39//45 32//40
f 39//45 36//5 30//39
f 45//51 48//52 20//30
f 48//52 44//49 17//7
f 16//11 18//29 6//20
f 18//29 15//26 3//13
f 24//34 27//35 53//55
f 27//35 23//9 51//8
f 31//10 34//41 49//48
f 34//41 30//39 43//4
f 2//12 4//19 35//38
f 4//19 1//16 29//36
f 8//1 14//22 28//32
f 14//22 10//15 22//14
f 29//36 1//16 9//23
